<svg xmlns="http://www.w3.org/2000/svg" viewBox="0 0 899.1 221.2">
  <defs>
    <style>
      .a {
        isolation: isolate;
      }

      .b, .c, .d, .e {
        fill: #2cb0cf;
      }

      .c {
        mix-blend-mode: overlay;
      }

      .d {
        opacity: 0.42;
      }

      .e {
        opacity: 0.32;
      }

      .f {
        fill: #fff;
      }
    </style>
  </defs>
  <title>logo</title>
  <g class="a">
    <g>
      <g>
        <g>
          <path class="b" d="M136.6,38.2h-26l53.5,104.6-26.8,54.6h31.5a12.3,12.3,0,0,0,11.1-6.9L198.7,152a20.3,20.3,0,0,0-.1-18.3L155.8,50A21.6,21.6,0,0,0,136.6,38.2Z" transform="translate(-58.2 -38.2)"/>
          <path class="b" d="M136.6,38.2h-26l53.5,104.6-26.8,54.6h31.5a12.3,12.3,0,0,0,11.1-6.9L198.7,152a20.3,20.3,0,0,0-.1-18.3L155.8,50A21.6,21.6,0,0,0,136.6,38.2Z" transform="translate(-58.2 -38.2)"/>
          <path class="b" d="M155.8,50c21.3,41.6,23,62.8,8.3,92.8l-26.8,54.6h31.5a12.3,12.3,0,0,0,11.1-6.9L198.7,152a20.3,20.3,0,0,0-.1-18.3Z" transform="translate(-58.2 -38.2)"/>
          <path class="c" d="M155.8,50c21.3,41.6,23,62.8,8.3,92.8l-26.8,54.6h31.5a12.3,12.3,0,0,0,11.1-6.9L198.7,152a20.3,20.3,0,0,0-.1-18.3Z" transform="translate(-58.2 -38.2)"/>
          <path class="d" d="M198.6,133.7,186.5,110c.8,13.6-2.4,25.9-9.5,40.3l-23.1,47.1h14.9a12.3,12.3,0,0,0,11.1-6.9L198.7,152A20.3,20.3,0,0,0,198.6,133.7Z" transform="translate(-58.2 -38.2)"/>
        </g>
        <g>
          <path class="b" d="M122.5,259.4h26L95,154.8l26.7-54.6H90.2a12.2,12.2,0,0,0-11,6.9L60.3,145.6a20.5,20.5,0,0,0,.2,18.4l42.8,83.7A21.6,21.6,0,0,0,122.5,259.4Z" transform="translate(-58.2 -38.2)"/>
          <path class="b" d="M122.5,259.4h26L95,154.8l26.7-54.6H90.2a12.2,12.2,0,0,0-11,6.9L60.3,145.6a20.5,20.5,0,0,0,.2,18.4l42.8,83.7A21.6,21.6,0,0,0,122.5,259.4Z" transform="translate(-58.2 -38.2)"/>
          <path class="b" d="M103.3,247.7C82,206,80.3,184.8,95,154.8l26.7-54.6H90.2a12.2,12.2,0,0,0-11,6.9L60.3,145.6a20.5,20.5,0,0,0,.2,18.4Z" transform="translate(-58.2 -38.2)"/>
          <path class="b" d="M103.3,247.7C82,206,80.3,184.8,95,154.8l26.7-54.6H90.2a12.2,12.2,0,0,0-11,6.9L60.3,145.6a20.5,20.5,0,0,0,.2,18.4Z" transform="translate(-58.2 -38.2)"/>
          <path class="e" d="M60.5,164l12.1,23.6C71.7,174,75,161.7,82,147.3l23.1-47.1H90.2a12.2,12.2,0,0,0-11,6.9L60.3,145.6A20.5,20.5,0,0,0,60.5,164Z" transform="translate(-58.2 -38.2)"/>
        </g>
      </g>
      <g>
        <path class="f" d="M271.2,153.7H246.3v23H274v6.9H238.1V119.7h34.5v6.9H246.3v20.2h24.9Z" transform="translate(-58.2 -38.2)"/>
        <path class="f" d="M315.4,176.5h-.2c-2.5,4.6-7.6,8.2-15,8.2-10.7,0-19.5-9.3-19.5-23.3,0-17.1,11.1-24.7,20.8-24.7,7.1,0,11.9,3.5,14.2,8h.1l.3-7H324c-.2,3.9-.3,7.9-.3,12.6v52.1h-8.3Zm0-20.2a13.9,13.9,0,0,0-.4-3.5,12.2,12.2,0,0,0-12-9.5c-8.6,0-13.8,7.3-13.8,17.7s4.4,17,13.6,17c5.4,0,10-3.3,11.9-9.1a12.9,12.9,0,0,0,.7-4Z" transform="translate(-58.2 -38.2)"/>
        <path class="f" d="M375.9,171.1c0,4.8.1,8.9.4,12.5h-7.4l-.5-7.5h-.2a17.3,17.3,0,0,1-15.2,8.6c-7.2,0-15.8-4-15.8-20.1V137.7h8.3v25.4c0,8.8,2.7,14.7,10.3,14.7a12,12,0,0,0,11-7.6,14.9,14.9,0,0,0,.7-4.3V137.7h8.4Z" transform="translate(-58.2 -38.2)"/>
        <path class="f" d="M399,124.8c.1,2.9-2,5.1-5.3,5.1a4.9,4.9,0,0,1-5-5.1,5.1,5.1,0,0,1,5.2-5.2A5,5,0,0,1,399,124.8Zm-9.3,58.8V137.7h8.4v45.9Z" transform="translate(-58.2 -38.2)"/>
        <path class="f" d="M422,124.5v13.2h11.9v6.4H422v24.7c0,5.7,1.6,9,6.2,9a18.4,18.4,0,0,0,4.9-.6l.3,6.2a19.2,19.2,0,0,1-7.4,1.2,12,12,0,0,1-9-3.5c-2.3-2.5-3.2-6.6-3.2-12v-25h-7.1v-6.4h7.1v-11Z" transform="translate(-58.2 -38.2)"/>
        <path class="f" d="M447.2,137.7l10,27.2c1.1,3,2.2,6.6,3,9.3h.2c.8-2.7,1.8-6.2,2.9-9.5l9.1-27h8.8l-12.5,32.8c-6,15.7-10,23.8-15.7,28.7a23,23,0,0,1-10.3,5.4l-2.1-7a21.8,21.8,0,0,0,7.3-4.1,24.9,24.9,0,0,0,7.1-9.3,8.2,8.2,0,0,0,.6-2,10.2,10.2,0,0,0-.5-2.2l-17-42.3Z" transform="translate(-58.2 -38.2)"/>
        <path class="f" d="M517.5,126.7H498v-7h47.4v7H525.8v56.9h-8.3Z" transform="translate(-58.2 -38.2)"/>
        <path class="f" d="M550.1,162.2c.2,11.3,7.4,15.9,15.7,15.9a30.6,30.6,0,0,0,12.7-2.3l1.5,5.9c-3,1.4-8,2.9-15.3,2.9-14.1,0-22.6-9.3-22.6-23.2s8.2-24.7,21.6-24.7,18.9,13.2,18.9,21.6a31,31,0,0,1-.3,3.9Zm24.5-6c.1-5.3-2.2-13.5-11.6-13.5s-12.1,7.7-12.8,13.5Z" transform="translate(-58.2 -38.2)"/>
        <path class="f" d="M625.7,181.9c-2.2,1.2-7,2.7-13.2,2.7-13.8,0-22.9-9.4-22.9-23.4s9.7-24.4,24.7-24.4a29.1,29.1,0,0,1,11.6,2.3l-1.9,6.5a19.7,19.7,0,0,0-9.7-2.2c-10.5,0-16.2,7.8-16.2,17.4s6.8,17.1,15.9,17.1a24.7,24.7,0,0,0,10.3-2.2Z" transform="translate(-58.2 -38.2)"/>
        <path class="f" d="M635.4,116.3h8.4v28.6h.2a15.2,15.2,0,0,1,6-5.8,16.2,16.2,0,0,1,8.5-2.4c6.2,0,16,3.8,16,19.6v27.3h-8.3V157.3c0-7.4-2.8-13.7-10.6-13.7a12,12,0,0,0-11.2,8.4,9.2,9.2,0,0,0-.6,3.9v27.7h-8.4Z" transform="translate(-58.2 -38.2)"/>
        <path class="f" d="M688.1,150.2c0-4.8-.1-8.7-.4-12.5h7.4l.5,7.6h.2a16.9,16.9,0,0,1,15.1-8.6c6.4,0,16.3,3.8,16.3,19.5v27.4h-8.4V157.2c0-7.4-2.7-13.6-10.6-13.6A12.3,12.3,0,0,0,696.4,156v27.6h-8.3Z" transform="translate(-58.2 -38.2)"/>
        <path class="f" d="M782.3,160.3c0,17-11.8,24.4-22.9,24.4s-22-9.1-22-23.6,10.1-24.4,22.8-24.4S782.3,146.3,782.3,160.3Zm-36.5.5c0,10,5.8,17.6,14,17.6s13.9-7.5,13.9-17.8c0-7.8-3.9-17.7-13.7-17.7S745.8,152,745.8,160.8Z" transform="translate(-58.2 -38.2)"/>
        <path class="f" d="M792.8,116.3h8.3v67.3h-8.3Z" transform="translate(-58.2 -38.2)"/>
        <path class="f" d="M856.7,160.3c0,17-11.7,24.4-22.8,24.4s-22-9.1-22-23.6,10-24.4,22.7-24.4S856.7,146.3,856.7,160.3Zm-36.4.5c0,10,5.8,17.6,13.9,17.6s14-7.5,14-17.8c0-7.8-3.9-17.7-13.8-17.7S820.3,152,820.3,160.8Z" transform="translate(-58.2 -38.2)"/>
        <path class="f" d="M906.8,137.7c-.2,3.3-.4,7-.4,12.6V177c0,10.5-2.1,17-6.5,21s-10.9,5.5-16.7,5.5-11.6-1.4-15.3-3.8l2.1-6.4a25.9,25.9,0,0,0,13.5,3.6c8.5,0,14.8-4.4,14.8-16v-5.1h-.2c-2.6,4.2-7.5,7.6-14.6,7.6-11.4,0-19.6-9.6-19.6-22.3,0-15.6,10.2-24.4,20.7-24.4,8,0,12.3,4.2,14.3,8h.2l.4-7Zm-8.6,18.1a11.7,11.7,0,0,0-.5-3.8,12,12,0,0,0-11.7-8.8c-7.9,0-13.6,6.8-13.6,17.4,0,9,4.5,16.5,13.5,16.5a12.2,12.2,0,0,0,11.6-8.5,14.5,14.5,0,0,0,.7-4.5Z" transform="translate(-58.2 -38.2)"/>
        <path class="f" d="M923.3,137.7l10,27.2c1.1,3,2.2,6.6,3,9.3h.2c.8-2.7,1.8-6.2,2.9-9.5l9.1-27h8.8l-12.5,32.8c-6,15.7-10,23.8-15.7,28.7a23,23,0,0,1-10.3,5.4l-2.1-7a21.8,21.8,0,0,0,7.3-4.1,24.9,24.9,0,0,0,7.1-9.3,8.2,8.2,0,0,0,.6-2,10.2,10.2,0,0,0-.5-2.2l-17-42.3Z" transform="translate(-58.2 -38.2)"/>
      </g>
    </g>
  </g>
</svg>
