<svg width="40" height="40" viewBox="0 0 151 230" fill="none" xmlns="http://www.w3.org/2000/svg">
<g filter="url(#filter0_d)">
<g filter="url(#filter1_d)">
<path d="M82.3818 0H56.3818L109.882 104.6L83.0818 159.2H114.582C116.893 159.209 119.161 158.567 121.124 157.346C123.087 156.126 124.667 154.377 125.682 152.3L144.482 113.8C145.899 110.955 146.628 107.817 146.611 104.638C146.594 101.46 145.83 98.3295 144.382 95.5L101.582 11.8C99.7777 8.25641 97.0305 5.2796 93.6427 3.19754C90.255 1.11549 86.3582 0.00900661 82.3818 0V0Z" fill="#2CB0CF"/>
</g>
<g filter="url(#filter2_d)">
<path d="M82.3818 0H56.3818L109.882 104.6L83.0818 159.2H114.582C116.893 159.209 119.161 158.567 121.124 157.346C123.087 156.126 124.667 154.377 125.682 152.3L144.482 113.8C145.899 110.955 146.628 107.817 146.611 104.638C146.594 101.46 145.83 98.3295 144.382 95.5L101.582 11.8C99.7777 8.25641 97.0305 5.2796 93.6427 3.19754C90.255 1.11549 86.3582 0.00900661 82.3818 0V0Z" fill="#2CB0CF"/>
</g>
<g filter="url(#filter3_d)">
<path d="M101.582 11.8C122.882 53.4 124.582 74.6 109.882 104.6L83.0818 159.2H114.582C116.893 159.209 119.161 158.567 121.124 157.346C123.087 156.126 124.667 154.377 125.682 152.3L144.482 113.8C145.899 110.955 146.628 107.817 146.611 104.638C146.594 101.46 145.83 98.3295 144.382 95.5L101.582 11.8Z" fill="#2CB0CF"/>
</g>
<g style="mix-blend-mode:overlay" filter="url(#filter4_d)">
<path d="M101.582 11.8C122.882 53.4 124.582 74.6 109.882 104.6L83.0818 159.2H114.582C116.893 159.209 119.161 158.567 121.124 157.346C123.087 156.126 124.667 154.377 125.682 152.3L144.482 113.8C145.899 110.955 146.628 107.817 146.611 104.638C146.594 101.46 145.83 98.3295 144.382 95.5L101.582 11.8Z" fill="#2CB0CF"/>
</g>
<path opacity="0.42" d="M144.382 95.5L132.282 71.8C133.082 85.4 129.882 97.7 122.782 112.1L99.6818 159.2H114.582C116.893 159.209 119.161 158.567 121.124 157.346C123.087 156.126 124.667 154.377 125.682 152.3L144.482 113.8C145.899 110.955 146.628 107.817 146.611 104.638C146.594 101.46 145.83 98.3295 144.382 95.5Z" fill="#2CB0CF"/>
</g>
<g filter="url(#filter5_d)">
<g filter="url(#filter6_d)">
<path d="M68.2817 221.2H94.2817L40.7817 116.6L67.4817 62H35.9817C33.6846 61.9978 31.4335 62.6443 29.4875 63.865C27.5415 65.0856 25.9797 66.8309 24.9817 68.9L6.08175 107.4C4.67899 110.27 3.96655 113.429 4.00127 116.624C4.036 119.818 4.81693 122.961 6.28175 125.8L49.0817 209.5C50.8995 213.025 53.6526 215.981 57.0394 218.045C60.4261 220.109 64.3157 221.2 68.2817 221.2Z" fill="#2CB0CF"/>
</g>
<g filter="url(#filter7_d)">
<path d="M68.2817 221.2H94.2817L40.7817 116.6L67.4817 62H35.9817C33.6846 61.9978 31.4335 62.6443 29.4875 63.865C27.5415 65.0856 25.9797 66.8309 24.9817 68.9L6.08175 107.4C4.67899 110.27 3.96655 113.429 4.00127 116.624C4.036 119.818 4.81693 122.961 6.28175 125.8L49.0817 209.5C50.8995 213.025 53.6526 215.981 57.0394 218.045C60.4261 220.109 64.3157 221.2 68.2817 221.2Z" fill="#2CB0CF"/>
</g>
<g filter="url(#filter8_d)">
<path d="M49.0818 209.5C27.7818 167.8 26.0818 146.6 40.7818 116.6L67.4818 62H35.9818C33.6846 61.9978 31.4335 62.6443 29.4875 63.865C27.5415 65.0856 25.9797 66.8309 24.9818 68.9L6.08175 107.4C4.67899 110.27 3.96655 113.429 4.00127 116.624C4.036 119.818 4.81693 122.961 6.28176 125.8L49.0818 209.5Z" fill="#2CB0CF"/>
</g>
<g filter="url(#filter9_d)">
<path d="M49.0818 209.5C27.7818 167.8 26.0818 146.6 40.7818 116.6L67.4818 62H35.9818C33.6846 61.9978 31.4335 62.6443 29.4875 63.865C27.5415 65.0856 25.9797 66.8309 24.9818 68.9L6.08175 107.4C4.67899 110.27 3.96655 113.429 4.00127 116.624C4.036 119.818 4.81693 122.961 6.28176 125.8L49.0818 209.5Z" fill="#0FCEED"/>
</g>
<path opacity="0.32" d="M6.28175 125.8L18.3817 149.4C17.4817 135.8 20.7817 123.5 27.7817 109.1L50.8817 62H35.9817C33.6845 61.9978 31.4335 62.6443 29.4875 63.865C27.5415 65.0856 25.9797 66.8309 24.9817 68.9L6.08175 107.4C4.67899 110.27 3.96655 113.429 4.00127 116.624C4.036 119.818 4.81693 122.961 6.28175 125.8V125.8Z" fill="#2CB0CF"/>
</g>
<defs>
<filter id="filter0_d" x="52.3818" y="0" width="98.2296" height="167.2" filterUnits="userSpaceOnUse" color-interpolation-filters="sRGB">
<feFlood flood-opacity="0" result="BackgroundImageFix"/>
<feColorMatrix in="SourceAlpha" type="matrix" values="0 0 0 0 0 0 0 0 0 0 0 0 0 0 0 0 0 0 127 0"/>
<feOffset dy="4"/>
<feGaussianBlur stdDeviation="2"/>
<feColorMatrix type="matrix" values="0 0 0 0 0 0 0 0 0 0 0 0 0 0 0 0 0 0 0.25 0"/>
<feBlend mode="normal" in2="BackgroundImageFix" result="effect1_dropShadow"/>
<feBlend mode="normal" in="SourceGraphic" in2="effect1_dropShadow" result="shape"/>
</filter>
<filter id="filter1_d" x="52.3818" y="0" width="98.2296" height="167.2" filterUnits="userSpaceOnUse" color-interpolation-filters="sRGB">
<feFlood flood-opacity="0" result="BackgroundImageFix"/>
<feColorMatrix in="SourceAlpha" type="matrix" values="0 0 0 0 0 0 0 0 0 0 0 0 0 0 0 0 0 0 127 0"/>
<feOffset dy="4"/>
<feGaussianBlur stdDeviation="2"/>
<feColorMatrix type="matrix" values="0 0 0 0 0 0 0 0 0 0 0 0 0 0 0 0 0 0 0.25 0"/>
<feBlend mode="normal" in2="BackgroundImageFix" result="effect1_dropShadow"/>
<feBlend mode="normal" in="SourceGraphic" in2="effect1_dropShadow" result="shape"/>
</filter>
<filter id="filter2_d" x="52.3818" y="0" width="98.2296" height="167.2" filterUnits="userSpaceOnUse" color-interpolation-filters="sRGB">
<feFlood flood-opacity="0" result="BackgroundImageFix"/>
<feColorMatrix in="SourceAlpha" type="matrix" values="0 0 0 0 0 0 0 0 0 0 0 0 0 0 0 0 0 0 127 0"/>
<feOffset dy="4"/>
<feGaussianBlur stdDeviation="2"/>
<feColorMatrix type="matrix" values="0 0 0 0 0 0 0 0 0 0 0 0 0 0 0 0 0 0 0.25 0"/>
<feBlend mode="normal" in2="BackgroundImageFix" result="effect1_dropShadow"/>
<feBlend mode="normal" in="SourceGraphic" in2="effect1_dropShadow" result="shape"/>
</filter>
<filter id="filter3_d" x="79.0818" y="11.8" width="71.5295" height="155.4" filterUnits="userSpaceOnUse" color-interpolation-filters="sRGB">
<feFlood flood-opacity="0" result="BackgroundImageFix"/>
<feColorMatrix in="SourceAlpha" type="matrix" values="0 0 0 0 0 0 0 0 0 0 0 0 0 0 0 0 0 0 127 0"/>
<feOffset dy="4"/>
<feGaussianBlur stdDeviation="2"/>
<feColorMatrix type="matrix" values="0 0 0 0 0 0 0 0 0 0 0 0 0 0 0 0 0 0 0.25 0"/>
<feBlend mode="normal" in2="BackgroundImageFix" result="effect1_dropShadow"/>
<feBlend mode="normal" in="SourceGraphic" in2="effect1_dropShadow" result="shape"/>
</filter>
<filter id="filter4_d" x="79.0818" y="11.8" width="71.5295" height="155.4" filterUnits="userSpaceOnUse" color-interpolation-filters="sRGB">
<feFlood flood-opacity="0" result="BackgroundImageFix"/>
<feColorMatrix in="SourceAlpha" type="matrix" values="0 0 0 0 0 0 0 0 0 0 0 0 0 0 0 0 0 0 127 0"/>
<feOffset dy="4"/>
<feGaussianBlur stdDeviation="2"/>
<feColorMatrix type="matrix" values="0 0 0 0 0 0 0 0 0 0 0 0 0 0 0 0 0 0 0.25 0"/>
<feBlend mode="normal" in2="BackgroundImageFix" result="effect1_dropShadow"/>
<feBlend mode="normal" in="SourceGraphic" in2="effect1_dropShadow" result="shape"/>
</filter>
<filter id="filter5_d" x="6.10352e-05" y="62" width="98.2816" height="167.2" filterUnits="userSpaceOnUse" color-interpolation-filters="sRGB">
<feFlood flood-opacity="0" result="BackgroundImageFix"/>
<feColorMatrix in="SourceAlpha" type="matrix" values="0 0 0 0 0 0 0 0 0 0 0 0 0 0 0 0 0 0 127 0"/>
<feOffset dy="4"/>
<feGaussianBlur stdDeviation="2"/>
<feColorMatrix type="matrix" values="0 0 0 0 0 0 0 0 0 0 0 0 0 0 0 0 0 0 0.25 0"/>
<feBlend mode="normal" in2="BackgroundImageFix" result="effect1_dropShadow"/>
<feBlend mode="normal" in="SourceGraphic" in2="effect1_dropShadow" result="shape"/>
</filter>
<filter id="filter6_d" x="6.10352e-05" y="62" width="98.2816" height="167.2" filterUnits="userSpaceOnUse" color-interpolation-filters="sRGB">
<feFlood flood-opacity="0" result="BackgroundImageFix"/>
<feColorMatrix in="SourceAlpha" type="matrix" values="0 0 0 0 0 0 0 0 0 0 0 0 0 0 0 0 0 0 127 0"/>
<feOffset dy="4"/>
<feGaussianBlur stdDeviation="2"/>
<feColorMatrix type="matrix" values="0 0 0 0 0 0 0 0 0 0 0 0 0 0 0 0 0 0 0.25 0"/>
<feBlend mode="normal" in2="BackgroundImageFix" result="effect1_dropShadow"/>
<feBlend mode="normal" in="SourceGraphic" in2="effect1_dropShadow" result="shape"/>
</filter>
<filter id="filter7_d" x="6.10352e-05" y="62" width="98.2816" height="167.2" filterUnits="userSpaceOnUse" color-interpolation-filters="sRGB">
<feFlood flood-opacity="0" result="BackgroundImageFix"/>
<feColorMatrix in="SourceAlpha" type="matrix" values="0 0 0 0 0 0 0 0 0 0 0 0 0 0 0 0 0 0 127 0"/>
<feOffset dy="4"/>
<feGaussianBlur stdDeviation="2"/>
<feColorMatrix type="matrix" values="0 0 0 0 0 0 0 0 0 0 0 0 0 0 0 0 0 0 0.25 0"/>
<feBlend mode="normal" in2="BackgroundImageFix" result="effect1_dropShadow"/>
<feBlend mode="normal" in="SourceGraphic" in2="effect1_dropShadow" result="shape"/>
</filter>
<filter id="filter8_d" x="6.10352e-05" y="62" width="71.4817" height="155.5" filterUnits="userSpaceOnUse" color-interpolation-filters="sRGB">
<feFlood flood-opacity="0" result="BackgroundImageFix"/>
<feColorMatrix in="SourceAlpha" type="matrix" values="0 0 0 0 0 0 0 0 0 0 0 0 0 0 0 0 0 0 127 0"/>
<feOffset dy="4"/>
<feGaussianBlur stdDeviation="2"/>
<feColorMatrix type="matrix" values="0 0 0 0 0 0 0 0 0 0 0 0 0 0 0 0 0 0 0.25 0"/>
<feBlend mode="normal" in2="BackgroundImageFix" result="effect1_dropShadow"/>
<feBlend mode="normal" in="SourceGraphic" in2="effect1_dropShadow" result="shape"/>
</filter>
<filter id="filter9_d" x="6.10352e-05" y="62" width="71.4817" height="155.5" filterUnits="userSpaceOnUse" color-interpolation-filters="sRGB">
<feFlood flood-opacity="0" result="BackgroundImageFix"/>
<feColorMatrix in="SourceAlpha" type="matrix" values="0 0 0 0 0 0 0 0 0 0 0 0 0 0 0 0 0 0 127 0"/>
<feOffset dy="4"/>
<feGaussianBlur stdDeviation="2"/>
<feColorMatrix type="matrix" values="0 0 0 0 0 0 0 0 0 0 0 0 0 0 0 0 0 0 0.25 0"/>
<feBlend mode="normal" in2="BackgroundImageFix" result="effect1_dropShadow"/>
<feBlend mode="normal" in="SourceGraphic" in2="effect1_dropShadow" result="shape"/>
</filter>
</defs>
</svg>
